HIERARCHY
ROOT Hips
{
	OFFSET 0.000000 0.000000 0.000000
	CHANNELS 6 Xposition Yposition Zposition Zrotation Yrotation Xrotation 
	JOINT LHipJoint
	{
		OFFSET 0.000000 0.000000 0.000000
		CHANNELS 3 Zrotation Yrotation Xrotation
		JOINT LeftUpLeg
		{
			OFFSET 1.363060 -1.794630 0.839290
			CHANNELS 3 Zrotation Yrotation Xrotation
			JOINT LeftLeg
			{
				OFFSET 2.448110 -6.726130 0.000000
				CHANNELS 3 Zrotation Yrotation Xrotation
				JOINT LeftFoot
				{
					OFFSET 2.562200 -7.039590 0.000000
					CHANNELS 3 Zrotation Yrotation Xrotation
					JOINT LeftToeBase
					{
						OFFSET 0.157640 -0.433110 2.322550
						CHANNELS 3 Zrotation Yrotation Xrotation
						End Site
						{
							OFFSET 0.000000 0.000000 0.000000
						}
					}
				}
			}
		}
	}
	JOINT RHipJoint
	{
		OFFSET 0.000000 0.000000 0.000000
		CHANNELS 3 Zrotation Yrotation Xrotation
		JOINT RightUpLeg
		{
			OFFSET -1.305520 -1.794630 0.839290
			CHANNELS 3 Zrotation Yrotation Xrotation
			JOINT RightLeg
			{
				OFFSET -2.542530 -6.985550 0.000000
				CHANNELS 3 Zrotation Yrotation Xrotation
				JOINT RightFoot
				{
					OFFSET -2.568260 -7.056230 0.000000
					CHANNELS 3 Zrotation Yrotation Xrotation
					JOINT RightToeBase
					{
						OFFSET -0.164730 -0.452590 2.363150
						CHANNELS 3 Zrotation Yrotation Xrotation
						End Site
						{
							OFFSET 0.000000 0.000000 0.000000
						}
					}
				}
			}
		}
	}
	JOINT LowerBack
	{
		OFFSET 0.000000 0.000000 0.000000
		CHANNELS 3 Zrotation Yrotation Xrotation
		JOINT Spine
		{
			OFFSET 0.028270 2.035590 -0.193380
			CHANNELS 3 Zrotation Yrotation Xrotation
			JOINT Spine1
			{
				OFFSET 0.056720 2.048850 -0.042750
				CHANNELS 3 Zrotation Yrotation Xrotation
				JOINT Neck
				{
					OFFSET 0.000000 0.000000 0.000000
					CHANNELS 3 Zrotation Yrotation Xrotation
					JOINT Neck1
					{
						OFFSET -0.054170 1.746240 0.172020
						CHANNELS 3 Zrotation Yrotation Xrotation
						JOINT Head
						{
							OFFSET 0.104070 1.761360 -0.123970
							CHANNELS 3 Zrotation Yrotation Xrotation
							End Site
							{
								OFFSET 0.000000 0.000000 0.000000
							}
						}
					}
				}
				JOINT LeftShoulder
				{
					OFFSET 0.000000 0.000000 0.000000
					CHANNELS 3 Zrotation Yrotation Xrotation
					JOINT LeftArm
					{
						OFFSET 3.362410 1.200890 -0.311210
						CHANNELS 3 Zrotation Yrotation Xrotation
						JOINT LeftForeArm
						{
							OFFSET 4.983000 -0.000000 -0.000000
							CHANNELS 3 Zrotation Yrotation Xrotation
							JOINT LeftHand
							{
								OFFSET 3.483560 -0.000000 -0.000000
								CHANNELS 3 Zrotation Yrotation Xrotation
								JOINT LeftFingerBase
								{
									OFFSET 0.000000 0.000000 0.000000
									CHANNELS 3 Zrotation Yrotation Xrotation
									JOINT LeftHandIndex1
									{
										OFFSET 0.715260 -0.000000 -0.000000
										CHANNELS 3 Zrotation Yrotation Xrotation
										End Site
										{
											OFFSET 0.000000 0.000000 0.000000
										}
									}
								}
								JOINT LThumb
								{
									OFFSET 0.000000 0.000000 0.000000
									CHANNELS 3 Zrotation Yrotation Xrotation
									End Site
									{
										OFFSET 0.000000 0.000000 0.000000
									}
								}
							}
						}
					}
				}
				JOINT RightShoulder
				{
					OFFSET 0.000000 0.000000 0.000000
					CHANNELS 3 Zrotation Yrotation Xrotation
					JOINT RightArm
					{
						OFFSET -3.136600 1.374050 -0.404650
						CHANNELS 3 Zrotation Yrotation Xrotation
						JOINT RightForeArm
						{
							OFFSET -5.241900 -0.000000 -0.000000
							CHANNELS 3 Zrotation Yrotation Xrotation
							JOINT RightHand
							{
								OFFSET -3.444170 -0.000000 -0.000000
								CHANNELS 3 Zrotation Yrotation Xrotation
								JOINT RightFingerBase
								{
									OFFSET 0.000000 0.000000 0.000000
									CHANNELS 3 Zrotation Yrotation Xrotation
									JOINT RightHandIndex1
									{
										OFFSET -0.622530 -0.000000 -0.000000
										CHANNELS 3 Zrotation Yrotation Xrotation
										End Site
										{
											OFFSET 0.000000 0.000000 0.000000
										}
									}
								}
								JOINT RThumb
								{
									OFFSET 0.000000 0.000000 0.000000
									CHANNELS 3 Zrotation Yrotation Xrotation
									End Site
									{
										OFFSET 0.000000 0.000000 0.000000
									}
								}
							}
						}
					}
				}
			}
		}
	}
}
MOTION
Frames: 7
Frame Time: 0.008333
0.724096 17.439759 31.669711 176.891985 0.939344 -164.835461 -7.933135 -1.078949 2.491941 -14.266778 -6.374912 -13.098498 0.172666 9.215548 26.397650 -0.784985 5.044811 -2.382774 0.295400 -3.494700 -9.659300 2.513064 2.041043 -2.331814 7.598503 1.904061 -44.915792 -4.272156 -14.178121 40.647284 1.616505 -7.876178 -1.298752 -0.000700 -0.164800 0.452700 -2.366989 -1.010783 9.192360 -0.145832 -1.546338 -3.890290 3.780355 -0.749502 -4.555552 -0.933440 -0.215456 -16.601851 3.389996 -0.369732 9.727360 0.199100 -0.114500 8.432500 1.338769 -3.261475 -0.220560 -88.024470 1.227460 24.666389 12.719029 -22.334424 -3.114530 -0.507612 -0.254829 16.506033 10.834532 9.305934 1.917000 -7.125000 0.000000 0.000000 -13.661000 39.490800 1.895900 -2.401659 2.717525 -0.450534 87.488791 -5.107670 18.784961 -20.799886 30.293271 -6.956166 1.070589 0.909709 -2.649290 -18.551171 -9.571857 3.694300 7.125000 0.000000 0.000000 6.538600 -40.931600 0.659200 
0.725323 17.453053 31.576349 176.874708 1.034174 -164.707901 -7.975325 -1.061054 2.570822 -14.275540 -6.305241 -12.829839 0.102303 9.094015 26.032472 -0.833151 5.171984 -2.073975 0.322200 -3.648300 -10.089200 2.552816 2.086215 -2.395234 7.583799 2.134753 -45.017413 -3.796629 -13.708303 38.834808 1.573791 -7.770870 -0.086449 -0.000200 -0.101100 0.277700 -2.340687 -1.043608 9.145196 -0.147608 -1.586234 -3.914357 3.764043 -0.775520 -4.582304 -0.913742 -0.173790 -16.661429 3.397634 -0.322170 9.705726 0.204100 -0.092000 8.434200 1.327343 -3.268851 -0.221327 -87.992706 1.169047 24.117625 12.605030 -22.184138 -3.076308 -0.512338 -0.254179 16.671470 10.822144 9.375692 1.929400 -7.125000 0.000000 0.000000 -13.684600 39.560700 1.875300 -2.383856 2.709079 -0.452060 87.488344 -5.168998 18.633706 -20.521231 29.985777 -6.795379 1.073793 0.910675 -2.484222 -18.486118 -9.617450 3.698500 7.125000 0.000000 0.000000 6.603000 -40.977600 0.658300 
0.727982 17.465631 31.481657 176.849457 1.097384 -164.574733 -8.017109 -1.042624 2.649407 -14.279189 -6.237334 -12.562249 0.032331 8.971400 25.665298 -0.870630 5.272865 -1.753298 0.350000 -3.801000 -10.517500 2.593619 2.130540 -2.458014 7.528637 2.392802 -45.079306 -3.349192 -13.236403 37.068928 1.541622 -7.738920 1.148837 -0.000100 -0.046900 0.129000 -2.317588 -1.083379 9.098765 -0.146513 -1.635224 -3.937698 3.756027 -0.805926 -4.605851 -0.896146 -0.134467 -16.730072 3.404099 -0.277921 9.678409 0.208300 -0.071800 8.435100 1.317008 -3.276430 -0.221958 -87.957071 1.110399 23.638000 12.512874 -22.061266 -3.045659 -0.515588 -0.253447 16.830131 10.800906 9.423918 1.935800 -7.125000 0.000000 0.000000 -13.712100 39.608200 1.862800 -2.366153 2.700545 -0.453351 87.480166 -5.233902 18.480407 -20.250922 29.685317 -6.640874 1.076381 0.911617 -2.312737 -18.412093 -9.663570 3.700800 7.125000 0.000000 0.000000 6.676300 -41.023500 0.658000 
0.731970 17.477288 31.385533 176.817392 1.121903 -164.442632 -8.057527 -1.022957 2.727991 -14.276569 -6.170764 -12.293574 -0.036357 8.849780 25.302124 -0.894370 5.338656 -1.421663 0.379700 -3.957300 -10.956500 2.634797 2.173037 -2.519437 7.430185 2.679237 -45.098949 -2.935149 -12.770893 35.373693 1.519111 -7.775723 2.354381 0.000000 0.017400 -0.047800 -2.297362 -1.131638 9.059330 -0.142239 -1.695340 -3.960272 3.756667 -0.841687 -4.629298 -0.879858 -0.098051 -16.806840 3.410079 -0.238051 9.645059 0.211700 -0.053900 8.435000 1.307876 -3.284125 -0.222482 -87.916256 1.053029 23.236955 12.445025 -21.969189 -3.023582 -0.517452 -0.252906 16.970019 10.770823 9.453727 1.936600 -7.125000 0.000000 0.000000 -13.744000 39.636200 1.857600 -2.348902 2.692065 -0.454408 87.466375 -5.308213 18.322518 -19.994381 29.398280 -6.495619 1.078180 0.912532 -2.138802 -18.329408 -9.708582 3.700700 7.125000 0.000000 0.000000 6.757700 -41.067300 0.658800 
0.737492 17.487821 31.287876 176.775711 1.115724 -164.311111 -8.096302 -1.001933 2.805922 -14.270661 -6.108317 -12.023202 -0.102720 8.730849 24.947900 -0.906356 5.375061 -1.085327 0.412200 -4.121100 -11.417600 2.675933 2.212948 -2.578876 7.279168 3.011585 -45.074282 -2.558715 -12.320612 33.772431 1.505532 -7.870229 3.475497 -0.000300 0.113100 -0.310800 -2.285288 -1.184666 9.024958 -0.135365 -1.762304 -3.981074 3.767684 -0.880524 -4.650448 -0.866587 -0.065506 -16.886796 3.417254 -0.203333 9.602785 0.215400 -0.039000 8.431400 1.299869 -3.291664 -0.222794 -87.871684 0.997976 22.917787 12.401550 -21.908517 -3.010077 -0.517967 -0.252673 17.088533 10.731477 9.466826 1.932300 -7.125000 0.000000 0.000000 -13.780800 39.646800 1.859200 -2.332060 2.683598 -0.454992 87.447267 -5.388910 18.150637 -19.747128 29.119924 -6.356816 1.079718 0.912350 -1.959922 -18.246416 -9.738707 3.694900 7.125000 0.000000 0.000000 6.837100 -41.094400 0.662000 
0.744548 17.496922 31.188889 176.730112 1.072307 -164.184820 -8.132524 -0.978616 2.883336 -14.253818 -6.052450 -11.748920 -0.166146 8.616397 24.607443 -0.903725 5.374420 -0.743751 0.448600 -4.297000 -11.913600 2.716434 2.249148 -2.635038 7.079060 3.392679 -45.003177 -2.222617 -11.894324 32.287542 1.497444 -7.997999 4.467039 -0.001200 0.224400 -0.616500 -2.277368 -1.244823 9.001454 -0.124022 -1.838484 -4.000713 3.791547 -0.923500 -4.673789 -0.856953 -0.036797 -16.965953 3.424757 -0.173620 9.550835 0.218900 -0.026900 8.423300 1.293407 -3.299024 -0.222956 -87.824750 0.947770 22.682705 12.383210 -21.880642 -3.005308 -0.517567 -0.252522 17.173709 10.695100 9.465728 1.925500 -7.125000 0.000000 0.000000 -13.812400 39.643200 1.864900 -2.315557 2.675244 -0.455117 87.422365 -5.479322 17.969028 -19.512121 28.853812 -6.226160 1.081214 0.911949 -1.783486 -18.167344 -9.764779 3.688300 7.125000 0.000000 0.000000 6.912500 -41.117500 0.665500 
0.753240 17.504489 31.088369 176.680787 0.991391 -164.067643 -8.165308 -0.952176 2.959929 -14.224793 -6.009076 -11.464395 -0.225548 8.508359 24.286864 -0.886495 5.336320 -0.403225 0.488100 -4.479900 -12.430900 2.755581 2.280572 -2.687075 6.836845 3.816969 -44.887457 -1.928288 -11.499932 30.938575 1.494707 -8.142657 5.287006 -0.003100 0.362200 -0.995300 -2.269395 -1.311139 8.987245 -0.109302 -1.922066 -4.015842 3.822963 -0.970138 -4.691293 -0.848332 -0.012263 -17.047847 3.432424 -0.150275 9.488484 0.221700 -0.018300 8.410800 1.288238 -3.306401 -0.222553 -87.773103 0.895609 22.530245 12.387988 -21.882603 -3.008704 -0.516445 -0.252395 17.221818 10.664963 9.451468 1.917200 -7.125000 0.000000 0.000000 -13.835800 39.626500 1.874000 -2.299540 2.666904 -0.454529 87.395538 -5.572192 17.770228 -19.287877 28.598331 -6.102559 1.082765 0.910654 -1.608207 -18.094235 -9.778323 3.678400 7.125000 0.000000 0.000000 6.980400 -41.126900 0.670500 
